<svg width="87" height="85" viewBox="0 0 87 85" fill="none" xmlns="http://www.w3.org/2000/svg">
<g filter="url(#filter0_dd_89_2479)">
<rect x="18" y="18" width="53" height="50" rx="25" fill="url(#paint0_linear_89_2479)"/>
</g>
<path d="M58 62V58.3333C58 56.3884 57.1872 54.5232 55.7405 53.1479C54.2938 51.7726 52.3317 51 50.2857 51H38.7143C36.6683 51 34.7062 51.7726 33.2595 53.1479C31.8128 54.5232 31 56.3884 31 58.3333V62M52.2143 36.3333C52.2143 40.3834 48.7605 43.6667 44.5 43.6667C40.2395 43.6667 36.7857 40.3834 36.7857 36.3333C36.7857 32.2832 40.2395 29 44.5 29C48.7605 29 52.2143 32.2832 52.2143 36.3333Z" stroke="white" stroke-width="3" stroke-linecap="round" stroke-linejoin="round"/>
<defs>
<filter id="filter0_dd_89_2479" x="0" y="0" width="87" height="85" filterUnits="userSpaceOnUse" color-interpolation-filters="sRGB">
<feFlood flood-opacity="0" result="BackgroundImageFix"/>
<feColorMatrix in="SourceAlpha" type="matrix" values="0 0 0 0 0 0 0 0 0 0 0 0 0 0 0 0 0 0 127 0" result="hardAlpha"/>
<feMorphology radius="3" operator="dilate" in="SourceAlpha" result="effect1_dropShadow_89_2479"/>
<feOffset dx="3" dy="4"/>
<feGaussianBlur stdDeviation="5"/>
<feComposite in2="hardAlpha" operator="out"/>
<feColorMatrix type="matrix" values="0 0 0 0 0.211765 0 0 0 0 0.211765 0 0 0 0 0.211765 0 0 0 0.24 0"/>
<feBlend mode="normal" in2="BackgroundImageFix" result="effect1_dropShadow_89_2479"/>
<feColorMatrix in="SourceAlpha" type="matrix" values="0 0 0 0 0 0 0 0 0 0 0 0 0 0 0 0 0 0 127 0" result="hardAlpha"/>
<feOffset dx="-8" dy="-8"/>
<feGaussianBlur stdDeviation="5"/>
<feComposite in2="hardAlpha" operator="out"/>
<feColorMatrix type="matrix" values="0 0 0 0 1 0 0 0 0 1 0 0 0 0 1 0 0 0 1 0"/>
<feBlend mode="normal" in2="effect1_dropShadow_89_2479" result="effect2_dropShadow_89_2479"/>
<feBlend mode="normal" in="SourceGraphic" in2="effect2_dropShadow_89_2479" result="shape"/>
</filter>
<linearGradient id="paint0_linear_89_2479" x1="18.9021" y1="43" x2="70.2191" y2="43.1526" gradientUnits="userSpaceOnUse">
<stop offset="0.00347201" stop-color="#001C7F"/>
<stop offset="0.503472" stop-color="#2943A1"/>
<stop offset="1" stop-color="#0027B2"/>
</linearGradient>
</defs>
</svg>
